<svg width="40" height="40" viewBox="0 0 40 40" fill="none" xmlns="http://www.w3.org/2000/svg">
<path d="M6.30244 18.5641C4.67775 10.876 9.85194 5.20171 17.2387 6.09203C17.2662 6.09675 17.2914 6.11007 17.3108 6.13008C17.3302 6.15009 17.3428 6.17575 17.3466 6.20335C17.3505 6.23095 17.3455 6.25907 17.3323 6.28364C17.3192 6.30821 17.2985 6.32796 17.2734 6.34004C16.5002 6.68796 15.7504 7.08559 15.0286 7.53045C14.9528 7.57524 14.8682 7.60315 14.7806 7.61228C13.2027 7.72941 11.6933 8.3043 10.4373 9.26646C7.38391 11.5481 6.95231 16.2948 8.26198 19.9306C9.75025 24.4616 13.4287 28.566 17.7125 30.7509C17.7363 30.7638 17.7557 30.7836 17.768 30.8077C17.7804 30.8318 17.7851 30.8591 17.7816 30.886C17.7781 30.9129 17.7666 30.938 17.7485 30.9582C17.7303 30.9783 17.7066 30.9925 17.6802 30.9989C16.9567 31.1341 16.2205 31.1881 15.485 31.1601C15.3775 31.1546 15.2732 31.1212 15.1824 31.0634C14.0891 30.3554 13.0651 29.5458 12.124 28.6454C9.23184 25.9025 7.11354 22.4527 6.30244 18.5641Z" fill="#181B1B"/>
<path d="M18.5657 33.6922C10.8764 35.3166 5.20361 30.1433 6.0916 22.7578C6.09669 22.7305 6.11029 22.7055 6.13047 22.6864C6.15064 22.6673 6.17635 22.6551 6.2039 22.6515C6.23145 22.6479 6.25943 22.6531 6.28382 22.6664C6.30821 22.6798 6.32775 22.7004 6.33965 22.7255C6.68913 23.4979 7.08679 24.2475 7.53026 24.97C7.57612 25.0453 7.60411 25.1301 7.61211 25.218C7.72931 26.7948 8.30431 28.3032 9.26657 29.558C11.5486 32.6109 16.2986 33.0449 19.9325 31.7355C24.4642 30.2475 28.5718 26.5696 30.7571 22.2841C30.7692 22.259 30.7889 22.2384 30.8135 22.2252C30.8381 22.212 30.8662 22.207 30.8938 22.2109C30.9214 22.2148 30.9471 22.2273 30.9671 22.2467C30.9871 22.2661 31.0004 22.2914 31.0051 22.3188C31.1416 23.042 31.1957 23.7783 31.1664 24.5136C31.1607 24.6204 31.1274 24.7238 31.0696 24.8137C30.3621 25.9073 29.5524 26.9312 28.6512 27.8716C25.8979 30.7658 22.4526 32.8961 18.5632 33.6972L18.5657 33.6922Z" fill="#181B1B"/>
<path d="M33.7014 21.4359C35.3261 29.124 30.1519 34.7983 22.7651 33.908C22.7378 33.9029 22.7128 33.8893 22.6937 33.8691C22.6746 33.8489 22.6624 33.8232 22.6588 33.7957C22.6552 33.7681 22.6605 33.7402 22.6738 33.7158C22.6871 33.6914 22.7078 33.6719 22.7329 33.66C23.5019 33.3116 24.2476 32.914 24.9653 32.4695C25.0411 32.4248 25.1257 32.3968 25.2133 32.3877C26.7912 32.2706 28.3006 31.6957 29.5566 30.7335C32.61 28.4519 33.0416 23.7051 31.7344 20.0694C30.2461 15.5384 26.5652 11.434 22.2814 9.24909C22.2576 9.23621 22.2382 9.21641 22.2259 9.19229C22.2135 9.16817 22.2088 9.14088 22.2123 9.11401C22.2158 9.08714 22.2273 9.06197 22.2454 9.04181C22.2635 9.02165 22.2873 9.00744 22.3137 9.00109C23.038 8.86593 23.7751 8.81187 24.5113 8.83989C24.6181 8.84551 24.7215 8.87885 24.8115 8.93661C25.9084 9.63925 26.9366 10.4439 27.8823 11.3397C30.7695 14.0975 32.8878 17.5473 33.7014 21.4359Z" fill="#181B1B"/>
<path d="M33.9122 17.2373C33.9062 17.2638 33.8922 17.2878 33.8722 17.3062C33.8522 17.3246 33.8271 17.3364 33.8002 17.3402C33.7733 17.344 33.7458 17.3395 33.7215 17.3273C33.6972 17.3151 33.6772 17.2958 33.6642 17.272C33.3125 16.5043 32.9141 15.7589 32.4711 15.04C32.4232 14.9652 32.3935 14.8803 32.3843 14.792C32.2672 13.2158 31.6921 11.7082 30.7298 10.4544C28.4503 7.4015 23.7002 6.96749 20.0639 8.27695C15.5322 9.76496 11.427 13.4428 9.24176 17.7258C9.22888 17.7497 9.20907 17.769 9.18495 17.7814C9.16082 17.7937 9.13352 17.7985 9.10665 17.795C9.07978 17.7915 9.0546 17.7799 9.03444 17.7618C9.01427 17.7437 9.00008 17.7199 8.99372 17.6936C8.85804 16.9703 8.80478 16.234 8.83497 15.4988C8.83824 15.3916 8.87178 15.2876 8.93171 15.1987C9.63831 14.1052 10.4473 13.0813 11.3477 12.1408C14.1059 9.24911 17.5487 7.13117 21.4455 6.31772C29.1225 4.67595 34.8027 9.85424 33.9097 17.2422L33.9122 17.2373Z" fill="#181B1B"/>
</svg>
