<svg width="16" height="16" viewBox="0 0 16 16" fill="none" xmlns="http://www.w3.org/2000/svg">
<path d="M3.33333 14C2.96667 14 2.65278 13.8694 2.39167 13.6083C2.13056 13.3472 2 13.0333 2 12.6667V3.33333C2 2.96667 2.13056 2.65278 2.39167 2.39167C2.65278 2.13056 2.96667 2 3.33333 2H12.6667C13.0333 2 13.3472 2.13056 13.6083 2.39167C13.8694 2.65278 14 2.96667 14 3.33333V12.6667C14 13.0333 13.8694 13.3472 13.6083 13.6083C13.3472 13.8694 13.0333 14 12.6667 14H3.33333ZM3.33333 3.33333V12.6667H12.6667V3.33333H11.3333V7.41667C11.3333 7.55 11.2778 7.64722 11.1667 7.70833C11.0556 7.76944 10.9444 7.76667 10.8333 7.7L10.0167 7.2C9.90556 7.13333 9.78889 7.1 9.66667 7.1C9.54444 7.1 9.42778 7.13333 9.31667 7.2L8.5 7.7C8.38889 7.76667 8.27778 7.76944 8.16667 7.70833C8.05556 7.64722 8 7.55 8 7.41667V3.33333H3.33333Z" fill="#666666"/>
</svg>
